{
    "asset" : {
        "generator" : "Khronos glTF Blender I/O v1.0.5",
        "version" : "2.0"
    },
    "scene" : 0,
    "scenes" : [
        {
            "name" : "Scene",
            "nodes" : [
                0,
                1,
                2
            ]
        }
    ],
    "nodes" : [
        {
            "name" : "Light",
            "rotation" : [
                0.16907575726509094,
                0.7558803558349609,
                -0.27217137813568115,
                0.570947527885437
            ],
            "translation" : [
                4.076245307922363,
                5.903861999511719,
                -1.0054539442062378
            ]
        },
        {
            "name" : "Camera",
            "rotation" : [
                0.483536034822464,
                0.33687159419059753,
                -0.20870360732078552,
                0.7804827094078064
            ],
            "translation" : [
                7.358891487121582,
                4.958309173583984,
                6.925790786743164
            ]
        },
        {
            "mesh" : 0,
            "name" : "brush_Ink_g0_b0",
            "rotation" : [
                0.7071068286895752,
                0,
                0,
                0.7071067094802856
            ]
        }
    ],
    "materials" : [
        {
            "doubleSided" : true,
            "name" : "f5c336cf51084b40ade9c687504385ab_brush_Ink",
            "pbrMetallicRoughness" : {
                "baseColorTexture" : {
                    "index" : 0,
                    "texCoord" : 0
                },
                "metallicFactor" : 0,
                "roughnessFactor" : 0.5527864098548889
            }
        }
    ],
    "meshes" : [
        {
            "name" : "brush_Ink_g0_b0",
            "primitives" : [
                {
                    "attributes" : {
                        "POSITION" : 0,
                        "NORMAL" : 1,
                        "TEXCOORD_0" : 2,
                        "COLOR_0" : 3
                    },
                    "indices" : 4,
                    "material" : 0
                },
                {
                    "attributes" : {
                        "POSITION" : 5,
                        "NORMAL" : 6,
                        "TEXCOORD_0" : 7,
                        "COLOR_0" : 8
                    },
                    "indices" : 9,
                    "material" : 0
                },
                {
                    "attributes" : {
                        "POSITION" : 10,
                        "NORMAL" : 11,
                        "TEXCOORD_0" : 12,
                        "COLOR_0" : 13
                    },
                    "indices" : 14,
                    "material" : 0
                }
            ]
        }
    ],
    "textures" : [
        {
            "source" : 0
        }
    ],
    "images" : [
        {
            "mimeType" : "image/png",
            "name" : "Ink_texture-Ink_texture",
            "uri" : "Ink_texture-Ink_texture.png"
        }
    ],
    "accessors" : [
        {
            "bufferView" : 0,
            "componentType" : 5126,
            "count" : 65535,
            "max" : [
                0.8877879977226257,
                2.32525897026062,
                -0.2305477410554886
            ],
            "min" : [
                -2.953070878982544,
                -1.5873396396636963,
                -2.1096606254577637
            ],
            "type" : "VEC3"
        },
        {
            "bufferView" : 1,
            "componentType" : 5126,
            "count" : 65535,
            "type" : "VEC3"
        },
        {
            "bufferView" : 2,
            "componentType" : 5126,
            "count" : 65535,
            "type" : "VEC2"
        },
        {
            "bufferView" : 3,
            "componentType" : 5126,
            "count" : 65535,
            "type" : "VEC4"
        },
        {
            "bufferView" : 4,
            "componentType" : 5123,
            "count" : 68211,
            "type" : "SCALAR"
        },
        {
            "bufferView" : 5,
            "componentType" : 5126,
            "count" : 25415,
            "max" : [
                0.8944222331047058,
                2.577082633972168,
                0.24653680622577667
            ],
            "min" : [
                -3.8015613555908203,
                -2.3775620460510254,
                -2.078381299972534
            ],
            "type" : "VEC3"
        },
        {
            "bufferView" : 6,
            "componentType" : 5126,
            "count" : 25415,
            "type" : "VEC3"
        },
        {
            "bufferView" : 7,
            "componentType" : 5126,
            "count" : 25415,
            "type" : "VEC2"
        },
        {
            "bufferView" : 8,
            "componentType" : 5126,
            "count" : 25415,
            "type" : "VEC4"
        },
        {
            "bufferView" : 9,
            "componentType" : 5123,
            "count" : 35889,
            "type" : "SCALAR"
        },
        {
            "bufferView" : 10,
            "componentType" : 5126,
            "count" : 4,
            "max" : [
                -0.30483680963516235,
                2.083324432373047,
                -0.32037001848220825
            ],
            "min" : [
                -0.39334776997566223,
                1.7796083688735962,
                -0.37172579765319824
            ],
            "type" : "VEC3"
        },
        {
            "bufferView" : 11,
            "componentType" : 5126,
            "count" : 4,
            "type" : "VEC3"
        },
        {
            "bufferView" : 12,
            "componentType" : 5126,
            "count" : 4,
            "type" : "VEC2"
        },
        {
            "bufferView" : 13,
            "componentType" : 5126,
            "count" : 4,
            "type" : "VEC4"
        },
        {
            "bufferView" : 14,
            "componentType" : 5123,
            "count" : 6,
            "type" : "SCALAR"
        }
    ],
    "bufferViews" : [
        {
            "buffer" : 0,
            "byteLength" : 786420,
            "byteOffset" : 0
        },
        {
            "buffer" : 0,
            "byteLength" : 786420,
            "byteOffset" : 786420
        },
        {
            "buffer" : 0,
            "byteLength" : 524280,
            "byteOffset" : 1572840
        },
        {
            "buffer" : 0,
            "byteLength" : 1048560,
            "byteOffset" : 2097120
        },
        {
            "buffer" : 0,
            "byteLength" : 136422,
            "byteOffset" : 3145680
        },
        {
            "buffer" : 0,
            "byteLength" : 304980,
            "byteOffset" : 3282104
        },
        {
            "buffer" : 0,
            "byteLength" : 304980,
            "byteOffset" : 3587084
        },
        {
            "buffer" : 0,
            "byteLength" : 203320,
            "byteOffset" : 3892064
        },
        {
            "buffer" : 0,
            "byteLength" : 406640,
            "byteOffset" : 4095384
        },
        {
            "buffer" : 0,
            "byteLength" : 71778,
            "byteOffset" : 4502024
        },
        {
            "buffer" : 0,
            "byteLength" : 48,
            "byteOffset" : 4573804
        },
        {
            "buffer" : 0,
            "byteLength" : 48,
            "byteOffset" : 4573852
        },
        {
            "buffer" : 0,
            "byteLength" : 32,
            "byteOffset" : 4573900
        },
        {
            "buffer" : 0,
            "byteLength" : 64,
            "byteOffset" : 4573932
        },
        {
            "buffer" : 0,
            "byteLength" : 12,
            "byteOffset" : 4573996
        }
    ],
    "buffers" : [
        {
            "byteLength" : 4574008,
            "uri" : "GLTF_Fuji.bin"
        }
    ]
}
