{
    "asset" : {
        "generator" : "Khronos glTF Blender I/O v1.0.5",
        "version" : "2.0"
    },
    "scene" : 0,
    "scenes" : [
        {
            "name" : "Scene",
            "nodes" : [
                0,
                1,
                2,
                3
            ]
        }
    ],
    "nodes" : [
        {
            "name" : "Light",
            "rotation" : [
                0.16907575726509094,
                0.7558803558349609,
                -0.27217137813568115,
                0.570947527885437
            ],
            "translation" : [
                4.076245307922363,
                5.903861999511719,
                -1.0054539442062378
            ]
        },
        {
            "name" : "Camera",
            "rotation" : [
                0.483536034822464,
                0.33687159419059753,
                -0.20870360732078552,
                0.7804827094078064
            ],
            "translation" : [
                7.358891487121582,
                4.958309173583984,
                6.925790786743164
            ]
        },
        {
            "mesh" : 0,
            "name" : "brush_Light_g0_b0",
            "rotation" : [
                0.7071068286895752,
                0,
                0,
                0.7071067094802856
            ],
            "scale" : [
                27.073015213012695,
                27.073015213012695,
                27.073015213012695
            ],
            "translation" : [
                -0.29407787322998047,
                -0.23101234436035156,
                0.9504756927490234
            ]
        },
        {
            "mesh" : 1,
            "name" : "brush_Flat_g0_b0",
            "rotation" : [
                0.7071068286895752,
                0,
                0,
                0.7071067094802856
            ],
            "scale" : [
                27.073015213012695,
                27.073015213012695,
                27.073015213012695
            ],
            "translation" : [
                -0.29407787322998047,
                -0.23101234436035156,
                0.9504756927490234
            ]
        }
    ],
    "materials" : [
        {
            "doubleSided" : true,
            "name" : "2241cd328ba248a59ee72caef7e9ed62_brush_Light",
            "pbrMetallicRoughness" : {
                "baseColorTexture" : {
                    "index" : 0,
                    "texCoord" : 0
                },
                "metallicFactor" : 0,
                "roughnessFactor" : 0.5527864098548889
            }
        },
        {
            "doubleSided" : true,
            "name" : "2d35bcf0e4d8452c97b13311be063130_brush_Flat",
            "pbrMetallicRoughness" : {
                "baseColorFactor" : [
                    1,
                    1,
                    1,
                    1
                ],
                "metallicFactor" : 0,
                "roughnessFactor" : 0.5527864098548889
            }
        }
    ],
    "meshes" : [
        {
            "name" : "brush_Light_g0_b0",
            "primitives" : [
                {
                    "attributes" : {
                        "POSITION" : 0,
                        "NORMAL" : 1,
                        "TEXCOORD_0" : 2,
                        "COLOR_0" : 3
                    },
                    "indices" : 4,
                    "material" : 0
                }
            ]
        },
        {
            "name" : "brush_Flat_g0_b0",
            "primitives" : [
                {
                    "attributes" : {
                        "POSITION" : 5,
                        "NORMAL" : 6,
                        "TEXCOORD_0" : 7,
                        "COLOR_0" : 8
                    },
                    "indices" : 9,
                    "material" : 1
                },
                {
                    "attributes" : {
                        "POSITION" : 10,
                        "NORMAL" : 11,
                        "TEXCOORD_0" : 12,
                        "COLOR_0" : 13
                    },
                    "indices" : 14,
                    "material" : 1
                }
            ]
        }
    ],
    "textures" : [
        {
            "source" : 0
        }
    ],
    "images" : [
        {
            "mimeType" : "image/png",
            "name" : "Light_texture-Light_texture",
            "uri" : "Light_texture-Light_texture.png"
        }
    ],
    "accessors" : [
        {
            "bufferView" : 0,
            "componentType" : 5126,
            "count" : 6,
            "max" : [
                0.04152799770236015,
                -0.0689096599817276,
                -1.7520287036895752
            ],
            "min" : [
                0.04152799770236015,
                -0.0689096599817276,
                -1.7520287036895752
            ],
            "type" : "VEC3"
        },
        {
            "bufferView" : 1,
            "componentType" : 5126,
            "count" : 6,
            "type" : "VEC3"
        },
        {
            "bufferView" : 2,
            "componentType" : 5126,
            "count" : 6,
            "type" : "VEC2"
        },
        {
            "bufferView" : 3,
            "componentType" : 5126,
            "count" : 6,
            "type" : "VEC4"
        },
        {
            "bufferView" : 4,
            "componentType" : 5123,
            "count" : 6,
            "type" : "SCALAR"
        },
        {
            "bufferView" : 5,
            "componentType" : 5126,
            "count" : 65535,
            "max" : [
                0.9072789549827576,
                1.0542194843292236,
                -1.1925750970840454
            ],
            "min" : [
                -0.17811714112758636,
                0.37144631147384644,
                -1.5687636137008667
            ],
            "type" : "VEC3"
        },
        {
            "bufferView" : 6,
            "componentType" : 5126,
            "count" : 65535,
            "type" : "VEC3"
        },
        {
            "bufferView" : 7,
            "componentType" : 5126,
            "count" : 65535,
            "type" : "VEC2"
        },
        {
            "bufferView" : 8,
            "componentType" : 5126,
            "count" : 65535,
            "type" : "VEC4"
        },
        {
            "bufferView" : 9,
            "componentType" : 5123,
            "count" : 65535,
            "type" : "SCALAR"
        },
        {
            "bufferView" : 10,
            "componentType" : 5126,
            "count" : 4251,
            "max" : [
                0.715955376625061,
                1.2489570379257202,
                -1.0295971632003784
            ],
            "min" : [
                -0.47077903151512146,
                0.46550750732421875,
                -1.4937409162521362
            ],
            "type" : "VEC3"
        },
        {
            "bufferView" : 11,
            "componentType" : 5126,
            "count" : 4251,
            "type" : "VEC3"
        },
        {
            "bufferView" : 12,
            "componentType" : 5126,
            "count" : 4251,
            "type" : "VEC2"
        },
        {
            "bufferView" : 13,
            "componentType" : 5126,
            "count" : 4251,
            "type" : "VEC4"
        },
        {
            "bufferView" : 14,
            "componentType" : 5123,
            "count" : 4251,
            "type" : "SCALAR"
        }
    ],
    "bufferViews" : [
        {
            "buffer" : 0,
            "byteLength" : 72,
            "byteOffset" : 0
        },
        {
            "buffer" : 0,
            "byteLength" : 72,
            "byteOffset" : 72
        },
        {
            "buffer" : 0,
            "byteLength" : 48,
            "byteOffset" : 144
        },
        {
            "buffer" : 0,
            "byteLength" : 96,
            "byteOffset" : 192
        },
        {
            "buffer" : 0,
            "byteLength" : 12,
            "byteOffset" : 288
        },
        {
            "buffer" : 0,
            "byteLength" : 786420,
            "byteOffset" : 300
        },
        {
            "buffer" : 0,
            "byteLength" : 786420,
            "byteOffset" : 786720
        },
        {
            "buffer" : 0,
            "byteLength" : 524280,
            "byteOffset" : 1573140
        },
        {
            "buffer" : 0,
            "byteLength" : 1048560,
            "byteOffset" : 2097420
        },
        {
            "buffer" : 0,
            "byteLength" : 131070,
            "byteOffset" : 3145980
        },
        {
            "buffer" : 0,
            "byteLength" : 51012,
            "byteOffset" : 3277052
        },
        {
            "buffer" : 0,
            "byteLength" : 51012,
            "byteOffset" : 3328064
        },
        {
            "buffer" : 0,
            "byteLength" : 34008,
            "byteOffset" : 3379076
        },
        {
            "buffer" : 0,
            "byteLength" : 68016,
            "byteOffset" : 3413084
        },
        {
            "buffer" : 0,
            "byteLength" : 8502,
            "byteOffset" : 3481100
        }
    ],
    "buffers" : [
        {
            "byteLength" : 3489604,
            "uri" : "Fisherman.bin"
        }
    ]
}
